<svg width="40" height="40" viewBox="0 0 40 40" fill="none" xmlns="http://www.w3.org/2000/svg">
<path opacity="0.5" d="M39.9902 0.270225L30.2035 36.8334C30.1537 36.9993 29.9546 37.0491 29.8385 36.9329L23.2864 30.3771L28.1963 12.0541C28.2461 11.8881 28.0968 11.7387 27.9309 11.7885L9.61809 16.7012L3.09911 10.1786C2.983 10.0624 3.03276 9.86327 3.19864 9.81348L39.7248 0.00467392C39.8907 -0.02852 40.04 0.120853 39.9902 0.270225Z" fill="#00B37E"/>
<path opacity="0.5" d="M23.2861 30.3768L20.7648 39.8371C20.715 40.0031 20.516 40.0529 20.3998 39.9367L0.0632817 19.6054C-0.0528324 19.4892 -0.00306943 19.2901 0.162808 19.2403L9.61781 16.7009L23.2861 30.3768Z" fill="#00B37E"/>
<path d="M28.153 12.01L23.3295 30.3561L9.59684 16.7448L27.8863 11.7457C28.0519 11.6952 28.2019 11.8438 28.153 12.01Z" fill="#00B37E"/>
</svg>
